<svg width="20" height="18" viewBox="0 0 20 18" fill="none" xmlns="http://www.w3.org/2000/svg">
<path d="M20 0L18 -1.74846e-07C17.45 -2.22928e-07 17 0.45 17 1L17 10C17 10.55 17.45 11 18 11L20 11L20 0ZM0.170001 7.12C0.060001 7.37 9.057e-07 7.64 8.81222e-07 7.92L7.86805e-07 9C6.9064e-07 10.1 0.900001 11 2 11L7.5 11L6.58 15.65C6.53 15.87 6.56 16.11 6.66 16.31C6.89 16.76 7.18 17.17 7.54 17.53L8 18L14.41 11.59C14.79 11.21 15 10.7 15 10.17L15 2.33C15 1.05 13.95 -5.28908e-07 12.66 -6.41683e-07L4.55 -1.35068e-06C3.85 -1.41188e-06 3.19 0.369998 2.83 0.969998L0.170001 7.12V7.12Z" fill="#949494"/>
</svg>
